<?xml version="1.0" encoding="utf-8"?>
<!-- Generator: Adobe Illustrator 25.2.3, SVG Export Plug-In . SVG Version: 6.00 Build 0)  -->
<svg version="1.1" id="Capa_1" xmlns="http://www.w3.org/2000/svg" xmlns:xlink="http://www.w3.org/1999/xlink" x="0px" y="0px"
	 viewBox="0 0 800 800" style="enable-background:new 0 0 800 800;" xml:space="preserve">
<style type="text/css">
	.st0{fill:url(#SVGID_1_);}
	.st1{fill:url(#SVGID_2_);}
	.st2{fill:url(#SVGID_3_);}
	.st3{fill:url(#SVGID_4_);}
	.st4{fill:url(#SVGID_5_);}
</style>
<g>
	<linearGradient id="SVGID_1_" gradientUnits="userSpaceOnUse" x1="400" y1="682.1885" x2="400" y2="117.8115">
		<stop  offset="0" style="stop-color:#DE6C2E"/>
		<stop  offset="0.0721" style="stop-color:#DF7530"/>
		<stop  offset="0.4961" style="stop-color:#E5A63D"/>
		<stop  offset="0.8188" style="stop-color:#E9C545"/>
		<stop  offset="1" style="stop-color:#EAD048"/>
	</linearGradient>
	<path class="st0" d="M531.71,246.43c7.6,68.59-48.15,100.03-48.15,100.03c2.53-231.51-157.12-228.65-157.12-228.65
		c32.94,28.58,70.96,131.47-25.34,197.21c-1.41,0.96-2.8,1.93-4.18,2.91c-123.84,87.98-113.87,314.05,20.43,350.12
		c0,0,67.12,19.62,114.53,12.63c41.83-6.16,52.09-13.54,63.4-20.07c48.73-28.14,93.57-86.18,94.68-167.85
		C591.42,387.19,531.71,246.43,531.71,246.43z"/>
</g>
</svg>
