<?xml version="1.0" encoding="utf-8"?>
<!-- Generator: Adobe Illustrator 25.2.3, SVG Export Plug-In . SVG Version: 6.00 Build 0)  -->
<svg version="1.1" id="Capa_1" xmlns="http://www.w3.org/2000/svg" xmlns:xlink="http://www.w3.org/1999/xlink" x="0px" y="0px"
	 viewBox="0 0 800 800" style="enable-background:new 0 0 800 800;" xml:space="preserve">
<style type="text/css">
	.st0{fill:url(#SVGID_1_);}
	.st1{fill:url(#SVGID_2_);}
	.st2{fill:url(#SVGID_3_);}
	.st3{fill:url(#SVGID_4_);}
	.st4{fill:url(#SVGID_5_);}
</style>
<g>
	<linearGradient id="SVGID_1_" gradientUnits="userSpaceOnUse" x1="400.9931" y1="670.4744" x2="398.2132" y2="197.0145">
		<stop  offset="0" style="stop-color:#DE6C2E"/>
		<stop  offset="0.0721" style="stop-color:#DF7530"/>
		<stop  offset="0.4961" style="stop-color:#E5A63D"/>
		<stop  offset="0.8188" style="stop-color:#E9C545"/>
		<stop  offset="1" style="stop-color:#EAD048"/>
	</linearGradient>
	<path class="st0" d="M531.71,253.5c7.6,68.59-48.15,100.03-48.15,100.03c2.53-231.51-157.12-228.65-157.12-228.65
		c32.94,28.58,70.96,131.47-25.34,197.21c-1.41,0.96-2.8,1.93-4.18,2.91c-123.84,87.98-113.87,314.05,20.43,350.12
		c-30.58-49.15-27.51-122.98,25.89-160.92c0.78-0.55,1.56-1.1,2.36-1.64c54.34-37.09,32.89-95.15,14.3-111.28
		c0,0,90.09-1.61,88.66,129.02c0,0,31.46-17.74,27.17-56.45c0,0,33.67,69.54,32.86,129.12c-0.35,25.3-7.33,48.79-19.08,68.21
		c59.23-36.18,99.35-89.67,100.47-171.34C591.42,394.25,531.71,253.5,531.71,253.5z"/>
</g>
</svg>
