<svg id="Capa_1" data-name="Capa 1" xmlns="http://www.w3.org/2000/svg" viewBox="0 0 500.62 259.27"><defs><style>.cls-1,.cls-2{fill:#1d1d1b;}.cls-2{font-size:175.45px;font-family:modista;}</style></defs><path class="cls-1" d="M90.3,257.67c4.71,0,10,0,16-.09H122.4a7.41,7.41,0,0,1,7.4,7.4v2.2a7.37,7.37,0,0,1-7.37,7.37H106.49c-6.08.08-11.39.08-16.1.08h-7a7.7,7.7,0,0,0-5.83,2.57,9.27,9.27,0,0,0-2.48,6v28.62h27.29a9.94,9.94,0,0,1,9.94,9.9l0,7.06L75.05,329v54H58l.09-100.33A23.91,23.91,0,0,1,65.54,265a24.17,24.17,0,0,1,17.82-7.28Z" transform="translate(-58 -256.38)"/><path class="cls-1" d="M139.78,270.78a8,8,0,0,1,0-11.91,9.53,9.53,0,0,1,12.85,0,8,8,0,0,1,0,11.91,9.56,9.56,0,0,1-12.85,0Zm-2,19.88h17l-.09,92.27-17.05-.08Z" transform="translate(-58 -256.38)"/><path class="cls-1" d="M236.08,295a45.85,45.85,0,0,1,15.08,11.14A47.17,47.17,0,0,1,260,320.47a37.68,37.68,0,0,1,2.91,13.8l-.09,48.66H245.94V342.4c.42-8.13-.86-14.73-3.69-19.79A27.77,27.77,0,0,0,231,311.39a32,32,0,0,0-14.4-3.6q-10.27-.26-18.76,7.2c-5.74,5.05-9.08,12.76-10.11,23.39v9.17c.09,3.85.09,8.05.09,12.68s-.09,9-.09,12.85v9.85h-17v-.26l.09-47.46V334l.06-33.86a9.54,9.54,0,0,1,9.6-9.53l7.39,0v10a42.68,42.68,0,0,1,26.47-10.11A53.11,53.11,0,0,1,236.08,295Z" transform="translate(-58 -256.38)"/><path class="cls-1" d="M366.5,383h-17V372.65a48.18,48.18,0,0,1-13.45,7.62A45.74,45.74,0,0,1,320.41,383a44.62,44.62,0,0,1-23.14-6.26,46.6,46.6,0,0,1-16.7-16.71,46,46,0,0,1,0-46.35,47.21,47.21,0,0,1,16.7-16.7,44.46,44.46,0,0,1,23.14-6.17,45.67,45.67,0,0,1,15.68,2.65,46.89,46.89,0,0,1,13.36,7.63l-.06-34a10.32,10.32,0,0,1,10.32-10.35h6.62Zm-17-46v-.09a12.06,12.06,0,0,0-.09-1.8,29.15,29.15,0,0,0-9.17-19.53,29.2,29.2,0,0,0-40.44.68A29.1,29.1,0,0,0,320.41,366a27.79,27.79,0,0,0,19.87-7.8,29.17,29.17,0,0,0,9.17-19.53v-3.18a9.43,9.43,0,0,1,.09,1.63Z" transform="translate(-58 -256.38)"/><text class="cls-2" transform="translate(324.83 209.15)">Mi</text></svg>