<svg width="438" height="242" viewBox="0 0 438 242" fill="none" xmlns="http://www.w3.org/2000/svg">
<path d="M56.75 75.75L54.25 99H28.75V175H5V23.25H1.25L3.75 0H61.75L59.25 23.25H28.75V75.75H56.75Z" fill="#4B99E8"/>
<path d="M94.1504 16.75L96.6504 40H72.9004V16.75H94.1504ZM96.6504 50V175H72.9004V73.25H69.1504L71.6504 50H96.6504Z" fill="#4B99E8"/>
<path d="M110.062 175V73.25H104.062L106.562 50H133.812V59.75L140.062 50H146.812C154.479 50 160.563 52.1667 165.062 56.5C169.729 60.8333 172.062 66.4167 172.062 73.25V151.75H178.312L175.812 175H148.312V74.5C148.312 73.6667 147.896 73.25 147.062 73.25H133.812V175H110.062Z" fill="#4B99E8"/>
<path d="M209.938 175C202.271 175 196.104 172.833 191.438 168.5C186.938 164 184.688 158.417 184.688 151.75V73.25C184.688 66.4167 186.938 60.8333 191.438 56.5C196.104 52.1667 202.271 50 209.938 50H210.938C215.438 50 219.438 51.0833 222.938 53.25V23.25H216.938L219.438 0H246.688V151.75H250.188L252.688 175H222.938V165.25L216.688 175H209.938ZM209.688 73.25C208.854 73.25 208.438 73.6667 208.438 74.5V150.5C208.438 151.333 208.854 151.75 209.688 151.75H222.938V73.25H209.688Z" fill="#4B99E8"/>
<path d="M262.25 242V90.25H258.5L261 67H300L312 161.25L324.25 67H362.5V242H338.75V106L320.25 217H304L286 109V242H262.25Z" fill="#E84B71"/>
<path d="M395.072 83.75L397.572 107H373.822V83.75H395.072ZM397.572 117V242H373.822V140.25H370.072L372.572 117H397.572Z" fill="#E84B71"/>
<path d="M0 185.5H256M403 185.5H438" stroke="#AFAFAF" stroke-width="2"/>
</svg>
